<?xml version="1.0" encoding="UTF-8"?>
<svg width="450" height="148" version="1.1" viewBox="0 0 119.06 39.158" xmlns="http://www.w3.org/2000/svg" xmlns:xlink="http://www.w3.org/1999/xlink">
 <defs>
  <clipPath id="clipPath936">
   <path d="m42.52 758.04h125.43v41.329h-125.43z"/>
  </clipPath>
 </defs>
 <g transform="translate(-191.08 -72.85)">
  <g transform="matrix(.91371 0 0 -.91371 154.39 804.23)" clip-path="url(#clipPath936)">
   <g transform="translate(165.68 763.96)">
    <path d="m0 0h0.602v1.243h0.877v-1.243h0.715v-0.65h-0.715v-2.609c0-0.341 0.098-0.463 0.398-0.463 0.131 0 0.236 8e-3 0.317 0.024v-0.65c-0.186-0.048-0.43-0.073-0.707-0.073-0.593 0-0.885 0.163-0.885 1.057v2.714h-0.602zm-3.735 0h0.829v-0.512h0.024c0.219 0.39 0.634 0.626 1.121 0.626 0.667 0 1.089-0.301 1.089-1.187v-3.299h-0.877v2.999c0 0.569-0.171 0.788-0.61 0.788-0.357 0-0.698-0.285-0.698-0.853v-2.934h-0.878zm-1.818-1.699v0.236c0 0.553-0.179 0.975-0.674 0.975-0.561 0-0.731-0.552-0.731-1.121v-0.09zm-1.405-0.601v-0.252c0-0.585 0.072-1.332 0.731-1.332 0.626 0 0.699 0.715 0.699 0.975h0.828c0-0.967-0.585-1.576-1.535-1.576-0.716 0-1.601 0.211-1.601 2.234 0 1.146 0.244 2.365 1.617 2.365 1.219 0 1.544-0.732 1.544-1.951v-0.463zm-6.945 2.3h0.829v-0.512h0.024c0.22 0.39 0.634 0.626 1.049 0.626 0.626 0 0.886-0.301 1.016-0.666 0.251 0.422 0.577 0.666 1.105 0.666 0.618 0 1.064-0.317 1.064-1.163v-3.323h-0.877v2.999c0 0.569-0.171 0.788-0.528 0.788-0.358 0-0.699-0.285-0.699-0.853v-2.934h-0.878v2.999c0 0.569-0.171 0.788-0.536 0.788-0.35 0-0.691-0.285-0.691-0.853v-2.934h-0.878zm-1.858-1.699v0.236c0 0.553-0.179 0.975-0.674 0.975-0.561 0-0.732-0.552-0.732-1.121v-0.09zm-1.406-0.601v-0.252c0-0.585 0.073-1.332 0.732-1.332 0.625 0 0.699 0.715 0.699 0.975h0.828c0-0.967-0.585-1.576-1.536-1.576-0.715 0-1.601 0.211-1.601 2.234 0 1.146 0.244 2.365 1.618 2.365 1.219 0 1.544-0.732 1.544-1.951v-0.463zm-3.386-1.341c0.683 0 0.756 0.862 0.756 1.552 0 0.716-0.089 1.504-0.699 1.504-0.634 0-0.739-0.65-0.739-1.463 0-0.747 0.032-1.593 0.682-1.593m-0.617-1.104c0-0.269 0.244-0.521 0.634-0.521 0.455 0 0.739 0.317 0.739 0.821v0.707h-0.016c-0.163-0.382-0.569-0.602-0.992-0.602-1.024 0-1.308 1.008-1.308 2.203 0 0.959 0.146 2.251 1.389 2.251 0.513 0 0.878-0.334 0.96-0.651h0.016v0.537h0.829v-4.161c0-1.064-0.456-1.706-1.634-1.706-1.3 0-1.446 0.764-1.446 1.122zm-2.818 2.681c-0.227-0.179-0.715-0.285-0.975-0.407-0.252-0.121-0.357-0.381-0.357-0.707 0-0.365 0.178-0.657 0.544-0.657 0.528 0 0.788 0.397 0.788 1.04zm0.829-1.398c0-0.162 0.098-0.309 0.228-0.309 0.057 0 0.113 9e-3 0.146 0.025v-0.569c-0.106-0.049-0.26-0.106-0.431-0.106-0.39 0-0.715 0.155-0.739 0.577h-0.016c-0.236-0.43-0.578-0.641-1.09-0.641-0.699 0-1.137 0.39-1.137 1.226 0 0.976 0.422 1.179 1.016 1.374l0.682 0.186c0.317 0.09 0.512 0.179 0.512 0.561 0 0.398-0.138 0.65-0.601 0.65-0.585 0-0.666-0.414-0.666-0.836h-0.829c0 0.926 0.382 1.438 1.535 1.438 0.773 0 1.39-0.301 1.39-1.073zm-6.994 3.462h0.829v-0.512h0.024c0.22 0.39 0.634 0.626 1.122 0.626 0.666 0 1.089-0.301 1.089-1.187v-3.299h-0.878v2.999c0 0.569-0.17 0.788-0.609 0.788-0.358 0-0.699-0.285-0.699-0.853v-2.934h-0.878zm-1.94-2.064c-0.227-0.179-0.715-0.285-0.975-0.407-0.251-0.121-0.357-0.381-0.357-0.707 0-0.365 0.179-0.657 0.545-0.657 0.527 0 0.787 0.397 0.787 1.04zm0.829-1.398c0-0.162 0.098-0.309 0.228-0.309 0.057 0 0.114 9e-3 0.146 0.025v-0.569c-0.105-0.049-0.26-0.106-0.43-0.106-0.39 0-0.715 0.155-0.74 0.577h-0.016c-0.236-0.43-0.577-0.641-1.089-0.641-0.699 0-1.138 0.39-1.138 1.226 0 0.976 0.423 1.179 1.016 1.374l0.683 0.186c0.316 0.09 0.511 0.179 0.511 0.561 0 0.398-0.137 0.65-0.601 0.65-0.585 0-0.666-0.414-0.666-0.836h-0.829c0 0.926 0.382 1.438 1.536 1.438 0.772 0 1.389-0.301 1.389-1.073zm-8.894 4.892h1.446l1.024-4.299h0.017l1.007 4.299h1.414v-5.802h-0.877v4.828h-0.016l-1.171-4.828h-0.78l-1.17 4.828h-0.017v-4.828h-0.877zm-4.434-2.08h-0.609v0.65h0.609v0.406c0 0.83 0.398 1.09 1.114 1.09 0.186 0 0.349-9e-3 0.479-0.025v-0.674h-0.244c-0.325 0-0.471-0.122-0.471-0.415v-0.382h0.715v-0.65h-0.715v-3.722h-0.878zm-2.793-3.185c0.642 0 0.756 0.536 0.756 1.649 0 0.967-0.114 1.649-0.756 1.649-0.633 0-0.747-0.682-0.747-1.649 0-1.113 0.114-1.649 0.747-1.649m0 3.949c1.276 0 1.634-0.943 1.634-2.3s-0.415-2.299-1.634-2.299c-1.211 0-1.625 0.942-1.625 2.299s0.358 2.3 1.625 2.3m-5.604 1.316h0.877v-5.802h-0.877zm-2.566-5.265c0.642 0 0.756 0.536 0.756 1.649 0 0.967-0.114 1.649-0.756 1.649-0.633 0-0.747-0.682-0.747-1.649 0-1.113 0.114-1.649 0.747-1.649m0 3.949c1.276 0 1.634-0.943 1.634-2.3s-0.415-2.299-1.634-2.299c-1.211 0-1.625 0.942-1.625 2.299s0.358 2.3 1.625 2.3m-3.979-3.949c0.642 0 0.756 0.536 0.756 1.649 0 0.967-0.114 1.649-0.756 1.649-0.634 0-0.747-0.682-0.747-1.649 0-1.113 0.113-1.649 0.747-1.649m0 3.949c1.276 0 1.634-0.943 1.634-2.3s-0.415-2.299-1.634-2.299c-1.211 0-1.625 0.942-1.625 2.299s0.358 2.3 1.625 2.3m-5.58 1.316h0.878v-1.901l0.024-0.017c0.244 0.374 0.626 0.602 1.073 0.602 0.666 0 1.089-0.301 1.089-1.187v-3.299h-0.878v2.999c0 0.569-0.17 0.788-0.609 0.788-0.358 0-0.699-0.285-0.699-0.853v-2.934h-0.878zm-0.826-4.209c-0.057-1.049-0.415-1.706-1.496-1.706-1.267 0-1.625 0.942-1.625 2.299s0.358 2.3 1.625 2.3c1.309 0.016 1.504-1.024 1.504-1.568h-0.878c0 0.405-0.113 0.934-0.626 0.917-0.633 0-0.747-0.682-0.747-1.649s0.114-1.649 0.747-1.649c0.488-9e-3 0.667 0.397 0.667 1.056zm-6.612 0.203v-0.146c0-0.708 0.309-1.065 0.95-1.065 0.586 0 0.878 0.415 0.878 0.845 0 0.61-0.309 0.878-0.829 1.032l-0.634 0.22c-0.845 0.325-1.21 0.764-1.21 1.592 0 1.057 0.715 1.642 1.804 1.642 1.487 0 1.641-0.926 1.641-1.528v-0.13h-0.926v0.122c0 0.529-0.236 0.838-0.813 0.838-0.398 0-0.78-0.22-0.78-0.838 0-0.496 0.252-0.748 0.869-0.983l0.626-0.228c0.821-0.292 1.179-0.739 1.179-1.536 0-1.235-0.748-1.746-1.918-1.746-1.439 0-1.764 0.959-1.764 1.771v0.138zm-9.128 2.576h0.828v-0.512h0.025c0.219 0.39 0.633 0.626 1.048 0.626 0.626 0 0.886-0.301 1.016-0.666 0.251 0.422 0.576 0.666 1.105 0.666 0.617 0 1.064-0.317 1.064-1.163v-3.323h-0.877v2.999c0 0.569-0.171 0.788-0.528 0.788-0.358 0-0.699-0.285-0.699-0.853v-2.934h-0.878v2.999c0 0.569-0.171 0.788-0.536 0.788-0.35 0-0.691-0.285-0.691-0.853v-2.934h-0.877zm-2.023 0h0.878v-4.372h-0.878zm0 1.496h0.878v-0.878h-0.878zm-1.858-3.195v0.236c0 0.553-0.179 0.975-0.674 0.975-0.561 0-0.732-0.552-0.732-1.121v-0.09zm-1.406-0.601v-0.252c0-0.585 0.073-1.332 0.732-1.332 0.625 0 0.699 0.715 0.699 0.975h0.828c0-0.967-0.585-1.576-1.536-1.576-0.715 0-1.601 0.211-1.601 2.234 0 1.146 0.244 2.365 1.618 2.365 1.219 0 1.544-0.732 1.544-1.951v-0.463zm-4.881 3.73h0.878v-1.901l0.024-0.017c0.244 0.374 0.626 0.602 1.073 0.602 0.666 0 1.089-0.301 1.089-1.187v-3.299h-0.878v2.999c0 0.569-0.17 0.788-0.609 0.788-0.358 0-0.699-0.285-0.699-0.853v-2.934h-0.878zm-1.793-2.705v0.113c0 0.35-0.123 0.674-0.578 0.674-0.349 0-0.625-0.162-0.625-0.569 0-0.341 0.154-0.478 0.617-0.642l0.561-0.194c0.65-0.22 0.951-0.569 0.951-1.26 0-0.935-0.683-1.332-1.569-1.332-1.105 0-1.438 0.511-1.438 1.356v0.163h0.78v-0.138c0-0.504 0.179-0.78 0.683-0.78 0.479 0 0.715 0.243 0.715 0.642 0 0.324-0.171 0.536-0.48 0.642l-0.715 0.251c-0.658 0.228-0.934 0.561-0.934 1.26 0 0.821 0.593 1.203 1.495 1.203 1.113 0 1.365-0.651 1.365-1.195v-0.194zm-3.867 1.275h0.878v-4.372h-0.878zm0 1.496h0.878v-0.878h-0.878zm-1.858-3.195v0.236c0 0.553-0.179 0.975-0.675 0.975-0.561 0-0.731-0.552-0.731-1.121v-0.09zm-1.406-0.601v-0.252c0-0.585 0.073-1.332 0.731-1.332 0.626 0 0.699 0.715 0.699 0.975h0.828c0-0.967-0.585-1.576-1.535-1.576-0.715 0-1.601 0.211-1.601 2.234 0 1.146 0.244 2.365 1.617 2.365 1.219 0 1.544-0.732 1.544-1.951v-0.463zm-3.435-1.373c0.552 0 0.853 0.358 0.853 1.024 0 0.626-0.373 0.983-0.91 0.983h-0.861v-2.007zm-0.187 2.657c0.561 0 0.853 0.374 0.853 0.918 0 0.691-0.414 0.829-0.934 0.829h-0.65v-1.747zm-1.658 2.446h1.877c0.862 0 1.561-0.382 1.561-1.405 0-0.707-0.277-1.138-0.854-1.317v-0.017c0.634-0.113 1.041-0.495 1.041-1.479 0-0.966-0.699-1.584-1.788-1.584h-1.837zm-4.75-5.265c0.643 0 0.756 0.536 0.756 1.649 0 0.967-0.113 1.649-0.756 1.649-0.633 0-0.747-0.682-0.747-1.649 0-1.113 0.114-1.649 0.747-1.649m0 3.949c1.276 0 1.634-0.943 1.634-2.3s-0.415-2.299-1.634-2.299c-1.21 0-1.625 0.942-1.625 2.299s0.358 2.3 1.625 2.3m-4.321-0.114h0.601v1.243h0.878v-1.243h0.715v-0.65h-0.715v-2.609c0-0.341 0.098-0.463 0.398-0.463 0.13 0 0.236 8e-3 0.317 0.024v-0.65c-0.187-0.048-0.431-0.073-0.707-0.073-0.593 0-0.886 0.163-0.886 1.057v2.714h-0.601zm-2.477 0h0.601v1.243h0.878v-1.243h0.715v-0.65h-0.715v-2.609c0-0.341 0.097-0.463 0.398-0.463 0.13 0 0.236 8e-3 0.317 0.024v-0.65c-0.187-0.048-0.431-0.073-0.707-0.073-0.593 0-0.886 0.163-0.886 1.057v2.714h-0.601zm-1.517-1.446c0 1.949-0.439 2.292-0.991 2.292-0.553 0-0.991-0.343-0.991-2.292 0-1.999 0.438-2.341 0.991-2.341 0.552 0 0.991 0.342 0.991 2.341m-2.909-0.025c0 2.072 0.585 3.015 1.918 3.015 1.332 0 1.918-0.943 1.918-3.015s-0.586-3.014-1.918-3.014c-1.333 0-1.918 0.942-1.918 3.014m65.612 36.709h4.853v-16.15c0-3.727 0.233-8.037 6.523-8.037 6.289 0 6.522 4.31 6.522 8.037v16.15h4.853v-17.742c0-7.105-4.543-10.638-11.375-10.638-6.833 0-11.376 3.533-11.376 10.638zm-27.255 0h4.853v-11.026h12.617v11.026h4.853v-27.72h-4.853v12.501h-12.617v-12.501h-4.853zm-39.358 0h4.931l5.008-21.198h0.077l5.591 21.198h4.969l5.435-21.198h0.078l5.164 21.198h4.93l-7.648-27.72h-4.93l-5.552 21.197h-0.078l-5.668-21.197h-5.008z" fill="#2151a8"/>
   </g>
   <path d="m167.17 771.98h-26.607v26.607h26.607zm-27.392-0.785h28.178v28.178h-28.178z" fill="#2151a8"/>
   <g transform="translate(150.46 790.16)">
    <path d="m0 0h3.315l-2.153-2.153h-3.315zm4.417-4.368h3.341l-2.149-2.149h-3.341zm-0.17 0.393v4.368h-4.41l-2.939-2.939h4.41v-4.364h4.445v-4.401l2.939 2.939v4.397z" fill="#2151a8"/>
   </g>
   <g transform="translate(155.96 795.66)">
    <path d="m0 0h3.315l-2.153-2.153h-3.315zm4.417-4.368h3.341l-2.149-2.149h-3.341zm-0.17 0.393v4.368h-4.41l-2.939-2.939h4.41v-4.364h4.445v-4.401l2.939 2.939v4.397z" fill="#2151a8"/>
   </g>
   <g transform="translate(144.97 784.67)">
    <path d="m0 0h3.315l-2.153-2.153h-3.315zm4.417-4.368h3.341l-2.149-2.149h-3.341zm-0.17 0.393v4.368h-4.41l-2.939-2.939h4.409v-4.364h4.446v-4.401l2.939 2.939v4.397z" fill="#2151a8"/>
   </g>
  </g>
 </g>
</svg>
